<svg xmlns="http://www.w3.org/2000/svg" viewBox="0 0 120 120">
	<defs>
		<style>
			.b{fill:#41355a;}.c{fill:#9abfab;}.d{fill:#fff;}
		</style>
	</defs>
	<circle class="b" cx="58.1" cy="58.68" r="40.33" />
	<path class="c" d="M23,89.53l-.59-.7a.41.41,0,0,0-.28-.14h0a.41.41,0,0,0-.26.1l-5.26,4.41a.41.41,0,0,0-.05.58l.59.7a.41.41,0,0,0,.28.14h0a.41.41,0,0,0,.26-.1L23,90.1A.41.41,0,0,0,23,89.53Z" />
	<path class="c" d="M18.49,83.45a.41.41,0,0,0,0-.31L18,82.36a.41.41,0,0,0-.56-.15L11.5,85.67a.41.41,0,0,0-.15.56l.46.79a.41.41,0,0,0,.56.15L18.3,83.7A.41.41,0,0,0,18.49,83.45Z" />
	<path class="c" d="M15,76.39a.41.41,0,0,0,0-.31l-.32-.85a.41.41,0,0,0-.38-.27l-.14,0-6.43,2.4a.41.41,0,0,0-.24.53l.32.85A.41.41,0,0,0,8.2,79l.14,0,6.43-2.4A.41.41,0,0,0,15,76.39Z" />
	<path class="c" d="M12.83,68.54l-.17-.9a.41.41,0,0,0-.4-.33h-.08L5.44,68.59a.41.41,0,0,0-.33.48l.17.9a.41.41,0,0,0,.4.33h.08L12.5,69A.41.41,0,0,0,12.83,68.54Z" />
	<path class="c" d="M11.84,61a.41.41,0,0,0,.11-.29l0-.91a.41.41,0,0,0-.41-.4h0l-6.86.12a.41.41,0,0,0-.4.42l0,.91a.41.41,0,0,0,.41.4h0l6.86-.12A.41.41,0,0,0,11.84,61Z" />
	<path class="c" d="M5.16,52.18l6.78,1H12a.41.41,0,0,0,.4-.35l.14-.9a.41.41,0,0,0-.34-.47l-6.78-1H5.36a.41.41,0,0,0-.4.35l-.14.9a.41.41,0,0,0,.34.47Z" />
	<path class="c" d="M7.14,43.35l6.51,2.17.13,0a.41.41,0,0,0,.39-.28l.29-.87a.41.41,0,0,0-.26-.52L7.68,41.71l-.13,0a.41.41,0,0,0-.39.28l-.29.87a.41.41,0,0,0,.26.52Z" />
	<path class="c" d="M16.66,38.16a.41.41,0,0,0,.55-.17l.43-.8a.41.41,0,0,0-.17-.55l-6-3.25a.41.41,0,0,0-.19,0l-.12,0a.41.41,0,0,0-.24.2l-.43.8a.41.41,0,0,0,.17.55Z" />
	<path class="c" d="M20.87,31.43a.41.41,0,0,0,.57-.07l.56-.72a.41.41,0,0,0-.07-.57l-5.41-4.22a.41.41,0,0,0-.25-.09h0a.41.41,0,0,0-.27.15l-.56.72a.41.41,0,0,0,.07.57Z" />
	<path class="c" d="M26.14,25.54a.41.41,0,0,0,.28.13h0a.41.41,0,0,0,.28-.11l.67-.62a.41.41,0,0,0,0-.58L22.8,19.3a.41.41,0,0,0-.28-.13h0a.41.41,0,0,0-.28.11l-.67.62a.41.41,0,0,0,0,.58Z" />
	<path class="c" d="M32.33,20.6a.41.41,0,0,0,.56.12l.77-.49a.41.41,0,0,0,.12-.56l-3.7-5.78a.41.41,0,0,0-.56-.12l-.77.49a.41.41,0,0,0-.12.56Z" />
	<path class="c" d="M39.63,17a.41.41,0,0,0,.16,0l.84-.35a.41.41,0,0,0,.22-.54L38.18,9.79a.41.41,0,0,0-.54-.22l-.84.36a.41.41,0,0,0-.22.54l2.67,6.32A.41.41,0,0,0,39.63,17Z" />
	<path class="c" d="M47.26,14.49l.89-.21a.41.41,0,0,0,.31-.49L46.9,7.11a.41.41,0,0,0-.4-.32h-.09L45.52,7a.41.41,0,0,0-.31.49l1.55,6.68a.41.41,0,0,0,.4.32Z" />
	<path class="c" d="M56.32,12.81,55.91,6a.41.41,0,0,0-.41-.38h0l-.91.05a.41.41,0,0,0-.38.43l.4,6.85a.41.41,0,0,0,.41.38h0l.91-.05a.41.41,0,0,0,.38-.43Z" />
	<path class="c" d="M64.23,13.15,65,6.33a.41.41,0,0,0-.36-.45l-.91-.1h0a.41.41,0,0,0-.41.36L62.51,13a.41.41,0,0,0,.36.45l.91.1h0a.41.41,0,0,0,.41-.36Z" />
	<path class="c" d="M72,14.82l1.89-6.59a.41.41,0,0,0-.28-.51l-.88-.25-.11,0a.41.41,0,0,0-.39.3l-1.89,6.59a.41.41,0,0,0,.28.51l.88.25.11,0A.41.41,0,0,0,72,14.82Z" />
	<path class="c" d="M82.3,11.61a.41.41,0,0,0-.19-.55l-.82-.4a.41.41,0,0,0-.55.19l-3,6.18a.41.41,0,0,0,.19.55l.82.4a.41.41,0,0,0,.18,0l.13,0a.41.41,0,0,0,.23-.21Z" />
	<path class="c" d="M90.07,16.39a.41.41,0,0,0-.09-.57l-.74-.53a.41.41,0,0,0-.24-.08h-.07a.41.41,0,0,0-.27.17l-4,5.58a.41.41,0,0,0,.09.57l.74.53a.41.41,0,0,0,.24.08h.07a.41.41,0,0,0,.27-.17Z" />
	<path class="c" d="M96.88,22.39a.41.41,0,0,0,0-.58l-.64-.65A.41.41,0,0,0,96,21h0a.41.41,0,0,0-.29.12L90.79,26a.41.41,0,0,0,0,.58l.64.65a.41.41,0,0,0,.29.12h0a.41.41,0,0,0,.29-.12Z" />
	<path class="c" d="M95.81,32.22a.41.41,0,0,0,.07.31l.52.75a.41.41,0,0,0,.57.1l5.62-3.94a.41.41,0,0,0,.1-.57l-.52-.75a.41.41,0,0,0-.57-.1L96,32A.41.41,0,0,0,95.81,32.22Z" />
	<path class="c" d="M99.89,39.27l.39.83a.41.41,0,0,0,.23.21l.14,0a.41.41,0,0,0,.17,0l6.2-2.94a.41.41,0,0,0,.19-.54l-.39-.82a.41.41,0,0,0-.54-.19l-6.2,2.94A.41.41,0,0,0,99.89,39.27Zm7-2.29-6.2,2.94,6.2-2.94-.26-.56Z" />
	<path class="c" d="M102.75,46.32a.41.41,0,0,0,0,.31l.24.88a.41.41,0,0,0,.39.3h.11L110.07,46a.41.41,0,0,0,.28-.5l-.24-.88a.41.41,0,0,0-.39-.3h-.11L103,46.13A.41.41,0,0,0,102.75,46.32Z" />
	<path class="c" d="M104.33,54a.41.41,0,0,0-.09.3l.09.91a.41.41,0,0,0,.41.37h0l6.83-.69a.41.41,0,0,0,.37-.45l-.09-.91a.41.41,0,0,0-.41-.37h0l-6.83.69A.41.41,0,0,0,104.33,54Z" />
	<path class="c" d="M111.72,62.26l-6.85-.46h0a.41.41,0,0,0-.41.38l-.06.91a.41.41,0,0,0,.38.44l6.85.46h0a.41.41,0,0,0,.41-.38l.06-.91A.41.41,0,0,0,111.72,62.26Z" />
	<path class="c" d="M110.48,71.28l-6.67-1.62h-.1a.41.41,0,0,0-.4.31l-.22.89a.41.41,0,0,0,.3.49L110.08,73h.1a.41.41,0,0,0,.4-.31l.21-.89A.41.41,0,0,0,110.48,71.28Z" />
	<path class="c" d="M101.45,77.21a.41.41,0,0,0-.16,0l-.15,0a.41.41,0,0,0-.22.22l-.36.84a.41.41,0,0,0,.21.54l6.3,2.73a.41.41,0,0,0,.54-.21l.36-.84a.41.41,0,0,0-.21-.54Z" />
	<path class="c" d="M97.81,84.27a.41.41,0,0,0-.22-.07h-.08a.41.41,0,0,0-.26.18l-.5.76a.41.41,0,0,0,.12.57l5.74,3.75a.41.41,0,0,0,.22.07h.08a.41.41,0,0,0,.26-.18l.5-.76a.41.41,0,0,0-.12-.57Z" />
	<path class="c" d="M93.05,90.59a.41.41,0,0,0-.58,0l-.62.67a.41.41,0,0,0,0,.58l5,4.67a.41.41,0,0,0,.28.11h0a.41.41,0,0,0,.28-.13l.62-.67a.41.41,0,0,0,0-.58Z" />
	<path class="c" d="M87.3,96a.41.41,0,0,0-.27-.16H87a.41.41,0,0,0-.25.08L86,96.5a.41.41,0,0,0-.08.57l4.18,5.45a.41.41,0,0,0,.27.16h.05a.41.41,0,0,0,.25-.08l.72-.56a.41.41,0,0,0,.08-.57Z" />
	<path class="c" d="M80.69,100.43a.41.41,0,0,0-.24-.2l-.12,0a.41.41,0,0,0-.19,0l-.81.43a.41.41,0,0,0-.17.55l3.19,6.07a.41.41,0,0,0,.24.2l.12,0a.41.41,0,0,0,.19,0l.81-.43a.41.41,0,0,0,.17-.55Z" />
	<path class="c" d="M73.06,103.36l-.13,0-.87.28a.41.41,0,0,0-.26.51l2.11,6.53a.41.41,0,0,0,.39.28l.13,0,.87-.28a.41.41,0,0,0,.26-.51l-2.11-6.53A.41.41,0,0,0,73.06,103.36Z" />
	<path class="c" d="M65.6,105.3a.41.41,0,0,0-.25-.08H65.3l-.9.13a.41.41,0,0,0-.35.46l1,6.79a.41.41,0,0,0,.4.35h.06l.9-.13a.41.41,0,0,0,.35-.46l-1-6.79A.41.41,0,0,0,65.6,105.3Z" />
	<path class="c" d="M57.49,105.75l-.91,0h0a.41.41,0,0,0-.41.4L56,113a.41.41,0,0,0,.4.42l.91,0h0a.41.41,0,0,0,.41-.4l.17-6.86A.41.41,0,0,0,57.49,105.75Z" />
	<path class="c" d="M49.67,105l-.9-.18h-.08a.41.41,0,0,0-.4.33L47,111.85a.41.41,0,0,0,.32.48l.9.18h.08a.41.41,0,0,0,.4-.33L50,105.45A.41.41,0,0,0,49.67,105Z" />
	<path class="c" d="M42.08,102.86l-.85-.33-.15,0a.41.41,0,0,0-.38.26l-2.46,6.41a.41.41,0,0,0,.24.53l.85.33.15,0a.41.41,0,0,0,.38-.26l2.46-6.41a.41.41,0,0,0-.24-.53Z" />
	<path class="c" d="M34.2,99A.41.41,0,0,0,34,99h-.1a.41.41,0,0,0-.25.19l-3.51,5.9a.41.41,0,0,0,.14.56l.78.47a.41.41,0,0,0,.21.06h.1a.41.41,0,0,0,.25-.19l3.51-5.9a.41.41,0,0,0-.14-.56Z" />
	<path class="c" d="M27.86,94.4a.41.41,0,0,0-.27-.1h0a.41.41,0,0,0-.28.14l-4.45,5.22a.41.41,0,0,0,0,.58l.69.59a.41.41,0,0,0,.27.1h0a.41.41,0,0,0,.28-.14l4.45-5.22a.41.41,0,0,0,0-.58Z" />
	<path class="d" d="M60.47,37.13A20.31,20.31,0,0,0,58.26,37,21.41,21.41,0,1,0,79.61,58.42,32.85,32.85,0,0,0,78.68,51l-.74-3-.11-.44-.31.34-2.05,2.25L61.53,65.49a4.54,4.54,0,0,1-6.36-.06l-9-9,4.95-4.91,6,6,1.16,1.16.17.17.17-.17,1.16-1.16L74.36,42.82l4.08-4.5c5.29,4.18,7.86,10.76,7.86,20.09a28.12,28.12,0,1,1-28-28.12c.62,0,1.23,0,1.89.07l1.75.12.26,0V25.81l9.38,8.36-9.42,8.3,0-3.47V37.31" />
</svg>
