<svg xmlns="http://www.w3.org/2000/svg" xmlns:xlink="http://www.w3.org/1999/xlink" viewBox="0 0 64 64">
	<defs>
		<style>
			.a {
			fill: url(#a);
			}
			
			.b {
			fill: url(#b);
			}
		</style>
		<linearGradient id="a" x1="2.45" y1="42.11" x2="57.93" y2="42.11" gradientUnits="userSpaceOnUse">
			<stop offset="0.2553" stop-color="#ef4023" />
			<stop offset="0.7392" stop-color="#f57720" />
			<stop offset="1" stop-color="#f7901e" />
		</linearGradient>
		<linearGradient id="b" x1="2" y1="31.17" x2="27.36" y2="31.17" xlink:href="#a" />
	</defs>
	<g>
		<path class="a" d="M47.723 35.693q-0.864 0.864-1.727 1.644l0.497 5.075c0.033 0.283 0.052 0.61 0.052 0.942 0 2.989-1.537 5.619-3.864 7.142l-0.033 0.020-12.421 8.293-1.088-13.794c-0.014 0-0.031 0-0.047 0-5.681 0-10.289-4.592-10.316-10.266v-0.038l-13.392-0.84 7.926-12.516c1.526-2.458 4.21-4.070 7.271-4.070 0.356 0 0.707 0.022 1.051 0.064l-0.041-0.004 4.85 0.461q0.793-0.887 1.668-1.763c10.055-10.008 25.896-11.842 30.095-10.434 1.396 4.2-0.438 20.028-10.481 30.084zM47.002 16.765c-1.069-1.060-2.541-1.715-4.165-1.715-3.267 0-5.915 2.648-5.915 5.915s2.648 5.915 5.915 5.915c1.625 0 3.097-0.655 4.166-1.716l-0 0c1.066-1.070 1.726-2.546 1.726-4.176s-0.659-3.106-1.726-4.176l0 0z">
		</path>
		<path class="b" d="M9.832 42.649l5.122-5.122c0.791 5.841 5.362 10.412 11.136 11.196l0.067 0.007-4.211 4.176-4.353 4.353v-5.596l-8.399 2.816 2.804-8.399h-5.607z">
		</path>
	</g>
</svg>
