<svg xmlns="http://www.w3.org/2000/svg" viewBox="0 0 502.67 119"><defs><style>.a{fill:#211526;}.b{fill:#41355a;}.c{fill:#9abfab;}.d{fill:#fff;}</style></defs><title>Artboard 2</title><path class="a" d="M172.74,73.1a18.1,18.1,0,0,1-1.61,7.58,17.78,17.78,0,0,1-4.64,6.16A22.53,22.53,0,0,1,159.14,91a29.59,29.59,0,0,1-9.83,1.52,47.28,47.28,0,0,1-10.11-1.1,41.13,41.13,0,0,1-9.37-3.22l3-11.49a44.17,44.17,0,0,0,7.26,2.71,31.8,31.8,0,0,0,8.73,1.15,12.61,12.61,0,0,0,6.34-1.42,4.94,4.94,0,0,0,2.48-4.64,5.5,5.5,0,0,0-2.16-4.18q-2.16-1.88-7.86-4-9-3.4-13.14-7.77a15.57,15.57,0,0,1-4.14-11.17q0-8.91,5.84-13.6t16.13-4.69a42.76,42.76,0,0,1,10,1.15,32.23,32.23,0,0,1,8.09,3l-2.57,11.3a36.66,36.66,0,0,0-7-2.53A31.92,31.92,0,0,0,153,41a11.24,11.24,0,0,0-5.47,1.15,4.1,4.1,0,0,0-2.07,3.91,5.92,5.92,0,0,0,.37,2.21A4.58,4.58,0,0,0,147.15,50a12.3,12.3,0,0,0,2.71,1.65q1.74.83,4.41,1.93,3.86,1.56,7.26,3.31a26.28,26.28,0,0,1,5.88,4,17.5,17.5,0,0,1,3.91,5.24A15.66,15.66,0,0,1,172.74,73.1Z"/><path class="a" d="M261.32,68.87a26.71,26.71,0,0,1-1.56,9.24,20.57,20.57,0,0,1-12.13,12.41,30.45,30.45,0,0,1-20.58,0,20.57,20.57,0,0,1-12.13-12.41,28.08,28.08,0,0,1,0-18.47A20.57,20.57,0,0,1,227,47.23a30.45,30.45,0,0,1,20.58,0,20.57,20.57,0,0,1,12.13,12.41A26.71,26.71,0,0,1,261.32,68.87Zm-14.7,0a23.19,23.19,0,0,0-.46-4.64,13.1,13.1,0,0,0-1.52-4,8,8,0,0,0-2.85-2.85,9.93,9.93,0,0,0-8.91,0A7.93,7.93,0,0,0,230,60.19a13,13,0,0,0-1.52,4,23.68,23.68,0,0,0,0,9.28,13,13,0,0,0,1.52,4,7.92,7.92,0,0,0,2.85,2.85,9.93,9.93,0,0,0,8.91,0,7.93,7.93,0,0,0,2.85-2.85,13.08,13.08,0,0,0,1.52-4A23.18,23.18,0,0,0,246.62,68.87Z"/><path class="a" d="M290,45.44a31.92,31.92,0,0,1,6.85.74,23.77,23.77,0,0,1,5.84,2L301.2,58.67A26.36,26.36,0,0,0,297,57.45a23.31,23.31,0,0,0-4.92-.52q-5.88,0-8.82,3.19t-2.94,8.75q0,5.56,2.94,8.75t8.82,3.19a23.26,23.26,0,0,0,4.92-.52,26.29,26.29,0,0,0,4.18-1.22l1.47,10.48a23.61,23.61,0,0,1-5.84,2,32,32,0,0,1-6.85.74,29.13,29.13,0,0,1-10.25-1.7,21.45,21.45,0,0,1-7.67-4.78,20.55,20.55,0,0,1-4.78-7.4,28.43,28.43,0,0,1,0-19.11,20.57,20.57,0,0,1,4.78-7.4,21.48,21.48,0,0,1,7.67-4.78A29.11,29.11,0,0,1,290,45.44Z"/><path class="a" d="M309.75,91.39V26.51h14.7V67.4l13.51-21h15.9L339.34,68.51l16.45,22.88H339L324.45,69.61V91.39Z"/><path class="a" d="M175.31,46.36h6.89V34.6h14.7V46.36h13V57.57h-13V75.14a6.73,6.73,0,0,0,1.15,4.16q1.15,1.51,4.18,1.51a25,25,0,0,0,3.35-.23,21.8,21.8,0,0,0,3.26-.69l1,10.28a21.87,21.87,0,0,1-5.42,1.57,37.76,37.76,0,0,1-6.43.56A17.9,17.9,0,0,1,190.7,91a13.25,13.25,0,0,1-4.87-3.58,14.23,14.23,0,0,1-2.76-5.33,24,24,0,0,1-.87-6.57V57.57h-6.89Z"/><path class="b" d="M400.12,64.34,394.7,81.15,405,91.53l-.06.13h-7.18l-5.41-5.41c-2.45,3.46-6.86,6.11-13.53,6.11-10.07,0-15.23-6.11-15.23-12.84,0-4.53,2.39-8.5,7.87-11.71l1.51-.88-1.38-1.45c-2.77-2.83-4.6-5.67-4.6-9.44,0-6.36,5.1-10.64,11.65-10.64,6.92,0,11.58,4.72,11.58,10.64,0,4.28-2.45,7.62-6.23,10.07l-2.58,1.7,8.94,9,3.9-12.46Zm-11.9,17.81L376.7,70.57,374.31,72c-3.46,2-5,4.6-5,7.36,0,4.09,3.4,7.87,9.76,7.87C383.62,87.19,386.58,85.18,388.22,82.15Zm-12.4-20,2,2,2.83-1.89c2.27-1.51,4-3.4,4-6.11,0-3.4-2.64-5.54-6-5.54-3.65,0-5.85,2.45-5.85,5.48C372.67,58.17,373.68,59.93,375.82,62.14Z"/><path class="b" d="M433,45.39a26.41,26.41,0,0,1,12.84,3.21v6.55a22.12,22.12,0,0,0-12.9-4.22c-10.39,0-17.69,7.81-17.69,17.94s7.3,17.94,18.19,17.94a20.58,20.58,0,0,0,13.09-4.6v6.61a25.67,25.67,0,0,1-13.41,3.52c-13.85,0-23.86-10-23.86-23.35C409.27,56,418.71,45.39,433,45.39Z"/><path class="b" d="M475.24,45.39c13.22,0,23.16,10.26,23.16,23.48s-9.95,23.48-23.16,23.48-23.17-10.26-23.17-23.48S462,45.39,475.24,45.39Zm0,41.42c9.95,0,17.18-7.93,17.18-17.94s-7.24-17.94-17.18-17.94-17.18,7.93-17.18,17.94S465.29,86.81,475.24,86.81Z"/><circle class="b" cx="58.1" cy="58.68" r="40.33"/><path class="c" d="M23,89.53l-.59-.7a.41.41,0,0,0-.28-.14h0a.41.41,0,0,0-.26.1l-5.26,4.41a.41.41,0,0,0-.05.58l.59.7a.41.41,0,0,0,.28.14h0a.41.41,0,0,0,.26-.1L23,90.1A.41.41,0,0,0,23,89.53Z"/><path class="c" d="M18.49,83.45a.41.41,0,0,0,0-.31L18,82.36a.41.41,0,0,0-.56-.15L11.5,85.67a.41.41,0,0,0-.15.56l.46.79a.41.41,0,0,0,.56.15L18.3,83.7A.41.41,0,0,0,18.49,83.45Z"/><path class="c" d="M15,76.39a.41.41,0,0,0,0-.31l-.32-.85a.41.41,0,0,0-.38-.27l-.14,0-6.43,2.4a.41.41,0,0,0-.24.53l.32.85A.41.41,0,0,0,8.2,79l.14,0,6.43-2.4A.41.41,0,0,0,15,76.39Z"/><path class="c" d="M12.83,68.54l-.17-.9a.41.41,0,0,0-.4-.33h-.08L5.44,68.59a.41.41,0,0,0-.33.48l.17.9a.41.41,0,0,0,.4.33h.08L12.5,69A.41.41,0,0,0,12.83,68.54Z"/><path class="c" d="M11.84,61a.41.41,0,0,0,.11-.29l0-.91a.41.41,0,0,0-.41-.4h0l-6.86.12a.41.41,0,0,0-.4.42l0,.91a.41.41,0,0,0,.41.4h0l6.86-.12A.41.41,0,0,0,11.84,61Z"/><path class="c" d="M5.16,52.18l6.78,1H12a.41.41,0,0,0,.4-.35l.14-.9a.41.41,0,0,0-.34-.47l-6.78-1H5.36a.41.41,0,0,0-.4.35l-.14.9a.41.41,0,0,0,.34.47Z"/><path class="c" d="M7.14,43.35l6.51,2.17.13,0a.41.41,0,0,0,.39-.28l.29-.87a.41.41,0,0,0-.26-.52L7.68,41.71l-.13,0a.41.41,0,0,0-.39.28l-.29.87a.41.41,0,0,0,.26.52Z"/><path class="c" d="M16.66,38.16a.41.41,0,0,0,.55-.17l.43-.8a.41.41,0,0,0-.17-.55l-6-3.25a.41.41,0,0,0-.19,0l-.12,0a.41.41,0,0,0-.24.2l-.43.8a.41.41,0,0,0,.17.55Z"/><path class="c" d="M20.87,31.43a.41.41,0,0,0,.57-.07l.56-.72a.41.41,0,0,0-.07-.57l-5.41-4.22a.41.41,0,0,0-.25-.09h0a.41.41,0,0,0-.27.15l-.56.72a.41.41,0,0,0,.07.57Z"/><path class="c" d="M26.14,25.54a.41.41,0,0,0,.28.13h0a.41.41,0,0,0,.28-.11l.67-.62a.41.41,0,0,0,0-.58L22.8,19.3a.41.41,0,0,0-.28-.13h0a.41.41,0,0,0-.28.11l-.67.62a.41.41,0,0,0,0,.58Z"/><path class="c" d="M32.33,20.6a.41.41,0,0,0,.56.12l.77-.49a.41.41,0,0,0,.12-.56l-3.7-5.78a.41.41,0,0,0-.56-.12l-.77.49a.41.41,0,0,0-.12.56Z"/><path class="c" d="M39.63,17a.41.41,0,0,0,.16,0l.84-.35a.41.41,0,0,0,.22-.54L38.18,9.79a.41.41,0,0,0-.54-.22l-.84.36a.41.41,0,0,0-.22.54l2.67,6.32A.41.41,0,0,0,39.63,17Z"/><path class="c" d="M47.26,14.49l.89-.21a.41.41,0,0,0,.31-.49L46.9,7.11a.41.41,0,0,0-.4-.32h-.09L45.52,7a.41.41,0,0,0-.31.49l1.55,6.68a.41.41,0,0,0,.4.32Z"/><path class="c" d="M56.32,12.81,55.91,6a.41.41,0,0,0-.41-.38h0l-.91.05a.41.41,0,0,0-.38.43l.4,6.85a.41.41,0,0,0,.41.38h0l.91-.05a.41.41,0,0,0,.38-.43Z"/><path class="c" d="M64.23,13.15,65,6.33a.41.41,0,0,0-.36-.45l-.91-.1h0a.41.41,0,0,0-.41.36L62.51,13a.41.41,0,0,0,.36.45l.91.1h0a.41.41,0,0,0,.41-.36Z"/><path class="c" d="M72,14.82l1.89-6.59a.41.41,0,0,0-.28-.51l-.88-.25-.11,0a.41.41,0,0,0-.39.3l-1.89,6.59a.41.41,0,0,0,.28.51l.88.25.11,0A.41.41,0,0,0,72,14.82Z"/><path class="c" d="M82.3,11.61a.41.41,0,0,0-.19-.55l-.82-.4a.41.41,0,0,0-.55.19l-3,6.18a.41.41,0,0,0,.19.55l.82.4a.41.41,0,0,0,.18,0l.13,0a.41.41,0,0,0,.23-.21Z"/><path class="c" d="M90.07,16.39a.41.41,0,0,0-.09-.57l-.74-.53a.41.41,0,0,0-.24-.08h-.07a.41.41,0,0,0-.27.17l-4,5.58a.41.41,0,0,0,.09.57l.74.53a.41.41,0,0,0,.24.08h.07a.41.41,0,0,0,.27-.17Z"/><path class="c" d="M96.88,22.39a.41.41,0,0,0,0-.58l-.64-.65A.41.41,0,0,0,96,21h0a.41.41,0,0,0-.29.12L90.79,26a.41.41,0,0,0,0,.58l.64.65a.41.41,0,0,0,.29.12h0a.41.41,0,0,0,.29-.12Z"/><path class="c" d="M95.81,32.22a.41.41,0,0,0,.07.31l.52.75a.41.41,0,0,0,.57.1l5.62-3.94a.41.41,0,0,0,.1-.57l-.52-.75a.41.41,0,0,0-.57-.1L96,32A.41.41,0,0,0,95.81,32.22Z"/><path class="c" d="M99.89,39.27l.39.83a.41.41,0,0,0,.23.21l.14,0a.41.41,0,0,0,.17,0l6.2-2.94a.41.41,0,0,0,.19-.54l-.39-.82a.41.41,0,0,0-.54-.19l-6.2,2.94A.41.41,0,0,0,99.89,39.27Zm7-2.29-6.2,2.94,6.2-2.94-.26-.56Z"/><path class="c" d="M102.75,46.32a.41.41,0,0,0,0,.31l.24.88a.41.41,0,0,0,.39.3h.11L110.07,46a.41.41,0,0,0,.28-.5l-.24-.88a.41.41,0,0,0-.39-.3h-.11L103,46.13A.41.41,0,0,0,102.75,46.32Z"/><path class="c" d="M104.33,54a.41.41,0,0,0-.09.3l.09.91a.41.41,0,0,0,.41.37h0l6.83-.69a.41.41,0,0,0,.37-.45l-.09-.91a.41.41,0,0,0-.41-.37h0l-6.83.69A.41.41,0,0,0,104.33,54Z"/><path class="c" d="M111.72,62.26l-6.85-.46h0a.41.41,0,0,0-.41.38l-.06.91a.41.41,0,0,0,.38.44l6.85.46h0a.41.41,0,0,0,.41-.38l.06-.91A.41.41,0,0,0,111.72,62.26Z"/><path class="c" d="M110.48,71.28l-6.67-1.62h-.1a.41.41,0,0,0-.4.31l-.22.89a.41.41,0,0,0,.3.49L110.08,73h.1a.41.41,0,0,0,.4-.31l.21-.89A.41.41,0,0,0,110.48,71.28Z"/><path class="c" d="M101.45,77.21a.41.41,0,0,0-.16,0l-.15,0a.41.41,0,0,0-.22.22l-.36.84a.41.41,0,0,0,.21.54l6.3,2.73a.41.41,0,0,0,.54-.21l.36-.84a.41.41,0,0,0-.21-.54Z"/><path class="c" d="M97.81,84.27a.41.41,0,0,0-.22-.07h-.08a.41.41,0,0,0-.26.18l-.5.76a.41.41,0,0,0,.12.57l5.74,3.75a.41.41,0,0,0,.22.07h.08a.41.41,0,0,0,.26-.18l.5-.76a.41.41,0,0,0-.12-.57Z"/><path class="c" d="M93.05,90.59a.41.41,0,0,0-.58,0l-.62.67a.41.41,0,0,0,0,.58l5,4.67a.41.41,0,0,0,.28.11h0a.41.41,0,0,0,.28-.13l.62-.67a.41.41,0,0,0,0-.58Z"/><path class="c" d="M87.3,96a.41.41,0,0,0-.27-.16H87a.41.41,0,0,0-.25.08L86,96.5a.41.41,0,0,0-.08.57l4.18,5.45a.41.41,0,0,0,.27.16h.05a.41.41,0,0,0,.25-.08l.72-.56a.41.41,0,0,0,.08-.57Z"/><path class="c" d="M80.69,100.43a.41.41,0,0,0-.24-.2l-.12,0a.41.41,0,0,0-.19,0l-.81.43a.41.41,0,0,0-.17.55l3.19,6.07a.41.41,0,0,0,.24.2l.12,0a.41.41,0,0,0,.19,0l.81-.43a.41.41,0,0,0,.17-.55Z"/><path class="c" d="M73.06,103.36l-.13,0-.87.28a.41.41,0,0,0-.26.51l2.11,6.53a.41.41,0,0,0,.39.28l.13,0,.87-.28a.41.41,0,0,0,.26-.51l-2.11-6.53A.41.41,0,0,0,73.06,103.36Z"/><path class="c" d="M65.6,105.3a.41.41,0,0,0-.25-.08H65.3l-.9.13a.41.41,0,0,0-.35.46l1,6.79a.41.41,0,0,0,.4.35h.06l.9-.13a.41.41,0,0,0,.35-.46l-1-6.79A.41.41,0,0,0,65.6,105.3Z"/><path class="c" d="M57.49,105.75l-.91,0h0a.41.41,0,0,0-.41.4L56,113a.41.41,0,0,0,.4.42l.91,0h0a.41.41,0,0,0,.41-.4l.17-6.86A.41.41,0,0,0,57.49,105.75Z"/><path class="c" d="M49.67,105l-.9-.18h-.08a.41.41,0,0,0-.4.33L47,111.85a.41.41,0,0,0,.32.48l.9.18h.08a.41.41,0,0,0,.4-.33L50,105.45A.41.41,0,0,0,49.67,105Z"/><path class="c" d="M42.08,102.86l-.85-.33-.15,0a.41.41,0,0,0-.38.26l-2.46,6.41a.41.41,0,0,0,.24.53l.85.33.15,0a.41.41,0,0,0,.38-.26l2.46-6.41a.41.41,0,0,0-.24-.53Z"/><path class="c" d="M34.2,99A.41.41,0,0,0,34,99h-.1a.41.41,0,0,0-.25.19l-3.51,5.9a.41.41,0,0,0,.14.56l.78.47a.41.41,0,0,0,.21.06h.1a.41.41,0,0,0,.25-.19l3.51-5.9a.41.41,0,0,0-.14-.56Z"/><path class="c" d="M27.86,94.4a.41.41,0,0,0-.27-.1h0a.41.41,0,0,0-.28.14l-4.45,5.22a.41.41,0,0,0,0,.58l.69.59a.41.41,0,0,0,.27.1h0a.41.41,0,0,0,.28-.14l4.45-5.22a.41.41,0,0,0,0-.58Z"/><path class="d" d="M60.47,37.13A20.31,20.31,0,0,0,58.26,37,21.41,21.41,0,1,0,79.61,58.42,32.85,32.85,0,0,0,78.68,51l-.74-3-.11-.44-.31.34-2.05,2.25L61.53,65.49a4.54,4.54,0,0,1-6.36-.06l-9-9,4.95-4.91,6,6,1.16,1.16.17.17.17-.17,1.16-1.16L74.36,42.82l4.08-4.5c5.29,4.18,7.86,10.76,7.86,20.09a28.12,28.12,0,1,1-28-28.12c.62,0,1.23,0,1.89.07l1.75.12.26,0V25.81l9.38,8.36-9.42,8.3,0-3.47V37.31"/></svg>