<svg xmlns="http://www.w3.org/2000/svg" xmlns:xlink="http://www.w3.org/1999/xlink" xml:space="preserve" viewBox="0 0 572.31866 107.38187">
	<defs id="defs6">
		<clipPath clipPathUnits="userSpaceOnUse" id="clipPath18">
			<path d="M 0,80.536 H 429.239 V 0 H 0 Z" id="path16" />
		</clipPath>
	</defs>
	<namedview pagecolor="#ffffff" bordercolor="#666666" borderopacity="1" objecttolerance="10" gridtolerance="10" guidetolerance="10" id="namedview4" />
	<g id="g10" transform="matrix(1.3333333,0,0,-1.3333333,0,107.38187)">
		<g id="g12">
			<g id="g14" clip-path="url(#clipPath18)">
				<g id="g20" transform="translate(25.0759,18.9669)">
					<path d="M 0,0 C 2,0 3.68,0.24 5.04,0.72 6.4,1.2 7.486,1.84 8.3,2.64 c 0.813,0.8 1.4,1.733 1.76,2.8 0.36,1.066 0.54,2.2 0.54,3.4 0,1.253 -0.2,2.38 -0.6,3.38 -0.4,1 -1.027,1.853 -1.88,2.56 -0.854,0.706 -1.954,1.246 -3.3,1.62 -1.347,0.373 -2.967,0.56 -4.86,0.56 H -10.88 L -10.88,0 Z M -10.88,41.12 V 24.4 h 8.56 c 3.68,0 6.46,0.666 8.34,2 1.88,1.333 2.82,3.453 2.82,6.36 0,3.013 -0.854,5.16 -2.56,6.44 -1.707,1.28 -4.374,1.92 -8,1.92 z m 9.16,8.32 c 3.786,0 7.026,-0.36 9.72,-1.08 2.693,-0.72 4.9,-1.747 6.62,-3.08 1.72,-1.334 2.98,-2.947 3.78,-4.84 0.8,-1.894 1.2,-4.027 1.2,-6.4 0,-1.36 -0.2,-2.66 -0.6,-3.9 C 18.6,28.9 17.98,27.74 17.14,26.66 16.3,25.58 15.233,24.6 13.94,23.72 12.646,22.84 11.106,22.093 9.32,21.48 17.266,19.693 21.24,15.4 21.24,8.6 21.24,6.146 20.773,3.88 19.84,1.8 18.906,-0.28 17.546,-2.074 15.76,-3.58 13.973,-5.087 11.773,-6.267 9.16,-7.12 6.546,-7.974 3.56,-8.4 0.2,-8.4 h -21.84 v 57.84 z" style="fill:#f8f9fa;fill-opacity:1;fill-rule:nonzero;stroke:none" id="path22" />
				</g>
				<g id="g24" transform="translate(64.9152,59.8468)">
					<path d="m 0,0 v -16.04 h 20.24 v -8.28 H 0 v -16.36 h 25.68 v -8.6 H -10.8 V 8.56 H 25.68 V 0 Z" style="fill:#f8f9fa;fill-opacity:1;fill-rule:nonzero;stroke:none" id="path26" />
				</g>
				<g id="g28" transform="translate(146.8752,68.4069)">
					<path d="m 0,0 v -57.84 h -5.52 c -0.854,0 -1.567,0.14 -2.14,0.42 -0.574,0.28 -1.127,0.753 -1.66,1.42 l -30.2,38.56 c 0.16,-1.76 0.24,-3.387 0.24,-4.88 v -35.52 h -9.48 V 0 h 5.64 c 0.453,0 0.846,-0.02 1.18,-0.06 0.333,-0.04 0.626,-0.12 0.88,-0.24 0.253,-0.12 0.5,-0.294 0.74,-0.52 0.24,-0.227 0.506,-0.527 0.8,-0.9 L -9.2,-40.44 c -0.08,0.933 -0.147,1.853 -0.2,2.76 -0.054,0.907 -0.08,1.746 -0.08,2.52 l 0,35.16 z" style="fill:#f8f9fa;fill-opacity:1;fill-rule:nonzero;stroke:none" id="path30" />
				</g>
				<g id="g32" transform="translate(198.1545,59.567)">
					<path d="M 0,0 H -17.439 V -49 H -28.2 V 0 H -45.64 V 8.84 H 0 Z" style="fill:#f8f9fa;fill-opacity:1;fill-rule:nonzero;stroke:none" id="path34" />
				</g>
				<g id="g36" transform="translate(245.9948,39.4869)">
					<path d="m 0,0 c 0,3.173 -0.427,6.02 -1.279,8.54 -0.855,2.52 -2.068,4.66 -3.641,6.42 -1.573,1.76 -3.486,3.106 -5.739,4.04 -2.254,0.933 -4.794,1.4 -7.62,1.4 -2.827,0 -5.367,-0.467 -7.62,-1.4 -2.254,-0.934 -4.174,-2.28 -5.76,-4.04 -1.588,-1.76 -2.808,-3.9 -3.661,-6.42 C -36.174,6.02 -36.6,3.173 -36.6,0 c 0,-3.174 0.426,-6.02 1.28,-8.54 0.853,-2.52 2.073,-4.654 3.661,-6.4 1.586,-1.747 3.506,-3.087 5.76,-4.02 2.253,-0.934 4.793,-1.4 7.62,-1.4 2.826,0 5.366,0.466 7.62,1.4 2.253,0.933 4.166,2.273 5.739,4.02 1.573,1.746 2.786,3.88 3.641,6.4 C -0.427,-6.02 0,-3.174 0,0 m 11,0 c 0,-4.24 -0.699,-8.167 -2.1,-11.78 -1.4,-3.614 -3.379,-6.74 -5.94,-9.38 -2.56,-2.64 -5.64,-4.7 -9.239,-6.18 -3.601,-1.48 -7.601,-2.22 -12,-2.22 -4.374,0 -8.361,0.74 -11.96,2.22 -3.601,1.48 -6.688,3.54 -9.261,6.18 -2.574,2.64 -4.567,5.766 -5.98,9.38 -1.414,3.613 -2.12,7.54 -2.12,11.78 0,4.24 0.706,8.167 2.12,11.78 1.413,3.613 3.406,6.74 5.98,9.38 2.573,2.64 5.66,4.7 9.261,6.18 3.599,1.48 7.586,2.22 11.96,2.22 2.932,0 5.692,-0.34 8.279,-1.02 2.587,-0.68 4.96,-1.64 7.12,-2.88 2.16,-1.24 4.101,-2.747 5.82,-4.52 C 4.66,19.366 6.12,17.386 7.32,15.2 8.521,13.013 9.434,10.64 10.061,8.08 10.687,5.52 11,2.826 11,0" style="fill:#f8f9fa;fill-opacity:1;fill-rule:nonzero;stroke:none" id="path38" />
				</g>
				<g id="g40" transform="translate(277.1549,37.6071)">
					<path d="m 0,0 c -2.134,-1.387 -3.687,-2.954 -4.66,-4.7 -0.974,-1.747 -1.46,-3.62 -1.46,-5.62 0,-1.467 0.253,-2.787 0.76,-3.96 0.506,-1.174 1.193,-2.167 2.06,-2.98 0.866,-0.814 1.88,-1.44 3.04,-1.88 1.159,-0.44 2.393,-0.66 3.699,-0.66 2.347,0 4.494,0.366 6.441,1.1 1.946,0.733 3.706,1.753 5.28,3.06 z m 38.52,-27.04 h -9.68 c -1.014,0 -1.834,0.12 -2.46,0.36 -0.627,0.24 -1.287,0.746 -1.981,1.52 l -4,4.12 c -2.533,-2.08 -5.373,-3.707 -8.519,-4.88 -3.147,-1.173 -6.547,-1.76 -10.2,-1.76 -2.214,0 -4.394,0.38 -6.54,1.14 -2.147,0.76 -4.06,1.86 -5.741,3.3 -1.679,1.44 -3.033,3.18 -4.059,5.22 -1.027,2.04 -1.54,4.34 -1.54,6.9 0,1.813 0.293,3.526 0.88,5.14 0.587,1.613 1.4,3.113 2.44,4.5 1.04,1.386 2.279,2.633 3.72,3.74 1.44,1.106 3.013,2.06 4.72,2.86 -1.44,2 -2.48,3.953 -3.121,5.86 -0.639,1.906 -0.96,3.806 -0.96,5.7 0,2 0.367,3.9 1.101,5.7 0.733,1.8 1.793,3.366 3.18,4.7 1.386,1.333 3.093,2.393 5.12,3.18 2.026,0.786 4.32,1.18 6.88,1.18 2.346,0 4.446,-0.36 6.3,-1.08 1.853,-0.72 3.44,-1.68 4.76,-2.88 1.32,-1.2 2.36,-2.574 3.119,-4.12 0.761,-1.547 1.207,-3.147 1.341,-4.8 L 17,17.24 c -1.174,-0.24 -2.027,0.266 -2.561,1.52 -0.239,0.693 -0.553,1.353 -0.939,1.98 -0.387,0.626 -0.847,1.173 -1.38,1.64 -0.534,0.466 -1.16,0.84 -1.88,1.12 -0.72,0.28 -1.547,0.42 -2.48,0.42 -1.12,0 -2.12,-0.194 -3,-0.58 C 3.88,22.953 3.14,22.433 2.54,21.78 1.939,21.126 1.479,20.366 1.16,19.5 0.84,18.633 0.68,17.72 0.68,16.76 0.68,15.96 0.76,15.186 0.92,14.44 1.08,13.693 1.346,12.946 1.72,12.2 2.093,11.453 2.58,10.686 3.18,9.9 3.78,9.113 4.52,8.266 5.399,7.36 L 20.76,-8.6 c 0.88,1.68 1.586,3.453 2.12,5.32 0.533,1.866 0.88,3.76 1.04,5.68 0.08,0.613 0.293,1.106 0.64,1.48 0.346,0.373 0.826,0.56 1.44,0.56 h 6.16 c -0.027,-3.52 -0.534,-6.88 -1.52,-10.08 -0.987,-3.2 -2.4,-6.147 -4.241,-8.84 z" style="fill:#bf2327;fill-opacity:1;fill-rule:nonzero;stroke:none" id="path42" />
				</g>
				<g id="g44" transform="translate(360.0749,24.2072)">
					<path d="m 0,0 c 0.586,0 1.106,-0.227 1.56,-0.68 l 4.24,-4.6 c -2.347,-2.907 -5.234,-5.134 -8.66,-6.68 -3.427,-1.547 -7.54,-2.32 -12.34,-2.32 -4.294,0 -8.154,0.733 -11.58,2.2 -3.427,1.466 -6.354,3.506 -8.781,6.12 -2.426,2.613 -4.286,5.733 -5.58,9.36 -1.293,3.626 -1.939,7.586 -1.939,11.88 0,4.346 0.693,8.326 2.08,11.94 1.386,3.613 3.34,6.726 5.859,9.34 2.521,2.613 5.527,4.646 9.021,6.1 3.493,1.453 7.36,2.18 11.599,2.18 4.214,0 7.954,-0.694 11.221,-2.08 3.266,-1.387 6.046,-3.2 8.34,-5.44 l -3.601,-5 C 1.227,32 0.953,31.72 0.62,31.48 0.286,31.24 -0.174,31.12 -0.76,31.12 c -0.4,0 -0.814,0.113 -1.24,0.34 -0.427,0.226 -0.894,0.506 -1.4,0.84 -0.507,0.333 -1.094,0.7 -1.76,1.1 -0.667,0.4 -1.441,0.766 -2.32,1.1 -0.88,0.333 -1.9,0.613 -3.06,0.84 -1.16,0.226 -2.5,0.34 -4.021,0.34 -2.586,0 -4.953,-0.46 -7.099,-1.38 -2.147,-0.92 -3.994,-2.254 -5.54,-4 -1.547,-1.747 -2.747,-3.88 -3.6,-6.4 -0.854,-2.52 -1.28,-5.394 -1.28,-8.62 0,-3.254 0.46,-6.147 1.38,-8.68 0.92,-2.534 2.166,-4.667 3.74,-6.4 1.573,-1.734 3.426,-3.06 5.56,-3.98 2.133,-0.92 4.426,-1.38 6.879,-1.38 1.467,0 2.794,0.08 3.981,0.24 1.186,0.16 2.28,0.413 3.28,0.76 1,0.346 1.947,0.793 2.84,1.34 0.893,0.546 1.779,1.22 2.66,2.02 0.266,0.24 0.546,0.433 0.84,0.58 C -0.627,-0.074 -0.32,0 0,0" style="fill:#f8f9fa;fill-opacity:1;fill-rule:nonzero;stroke:none" id="path46" />
				</g>
				<g id="g48" transform="translate(414.195,39.4869)">
					<path d="m 0,0 c 0,3.173 -0.427,6.02 -1.279,8.54 -0.855,2.52 -2.068,4.66 -3.641,6.42 -1.573,1.76 -3.486,3.106 -5.739,4.04 -2.254,0.933 -4.794,1.4 -7.62,1.4 -2.827,0 -5.367,-0.467 -7.62,-1.4 -2.254,-0.934 -4.174,-2.28 -5.76,-4.04 -1.587,-1.76 -2.808,-3.9 -3.66,-6.42 C -36.174,6.02 -36.6,3.173 -36.6,0 c 0,-3.174 0.426,-6.02 1.281,-8.54 0.852,-2.52 2.073,-4.654 3.66,-6.4 1.586,-1.747 3.506,-3.087 5.76,-4.02 2.253,-0.934 4.793,-1.4 7.62,-1.4 2.826,0 5.366,0.466 7.62,1.4 2.253,0.933 4.166,2.273 5.739,4.02 1.573,1.746 2.786,3.88 3.641,6.4 C -0.427,-6.02 0,-3.174 0,0 m 11,0 c 0,-4.24 -0.699,-8.167 -2.1,-11.78 -1.4,-3.614 -3.379,-6.74 -5.94,-9.38 -2.56,-2.64 -5.64,-4.7 -9.239,-6.18 -3.601,-1.48 -7.601,-2.22 -12,-2.22 -4.374,0 -8.361,0.74 -11.96,2.22 -3.601,1.48 -6.688,3.54 -9.261,6.18 -2.573,2.64 -4.566,5.766 -5.979,9.38 -1.415,3.613 -2.121,7.54 -2.121,11.78 0,4.24 0.706,8.167 2.121,11.78 1.413,3.613 3.406,6.74 5.979,9.38 2.573,2.64 5.66,4.7 9.261,6.18 3.599,1.48 7.586,2.22 11.96,2.22 2.932,0 5.692,-0.34 8.279,-1.02 2.587,-0.68 4.96,-1.64 7.12,-2.88 2.16,-1.24 4.101,-2.747 5.82,-4.52 C 4.66,19.366 6.12,17.386 7.32,15.2 8.521,13.013 9.434,10.64 10.061,8.08 10.687,5.52 11,2.826 11,0" style="fill:#f8f9fa;fill-opacity:1;fill-rule:nonzero;stroke:none" id="path50" />
				</g>
			</g>
		</g>
	</g>
</svg>
