<?xml version="1.0" standalone="no"?>
<!DOCTYPE svg PUBLIC "-//W3C//DTD SVG 20010904//EN"
 "http://www.w3.org/TR/2001/REC-SVG-20010904/DTD/svg10.dtd">
<svg version="1.0" xmlns="http://www.w3.org/2000/svg"
 width="64" height="64" viewBox="0 0 700.000000 700.000000"
 preserveAspectRatio="xMidYMid meet">
<metadata>
Created by potrace 1.11, written by Peter Selinger 2001-2013
</metadata>
<g transform="translate(0.000000,700.000000) scale(0.100000,-0.100000)"
fill="#000000" stroke="none">
<path d="M4635 6673 c-167 -65 -370 -159 -497 -232 -21 -11 -55 -30 -75 -42
-210 -118 -514 -329 -647 -451 l-29 -26 375 0 376 -1 97 147 c87 130 240 348
255 362 3 3 18 23 35 45 16 22 62 79 103 128 40 48 67 87 60 86 -7 -1 -31 -8
-53 -16z"/>
<path d="M3120 5627 c-251 -247 -400 -483 -464 -737 -32 -130 -39 -187 -39
-315 0 -294 62 -527 306 -1145 94 -238 113 -289 163 -440 63 -191 89 -283 100
-350 2 -14 9 -45 14 -70 41 -180 48 -530 16 -710 -90 -501 -340 -929 -835
-1427 -99 -100 -111 -115 -101 -133 18 -35 33 -29 245 95 385 226 859 644
1167 1030 9 11 38 47 65 80 154 190 403 553 443 646 5 13 14 31 20 39 67 104
201 498 230 675 5 33 12 71 15 84 26 131 25 528 -1 656 -3 11 -7 38 -9 60 -6
48 -6 48 -39 195 -14 63 -31 133 -38 155 -6 22 -12 42 -13 45 -1 3 -5 19 -9
35 -8 31 -75 237 -152 473 -71 216 -104 337 -135 502 -29 156 -28 417 1 496 5
13 8 24 6 24 -2 0 2 17 9 37 9 25 10 44 4 55 -9 17 -40 18 -452 18 l-442 0
-75 -73z"/>
</g>
</svg>
