<svg xmlns="http://www.w3.org/2000/svg" xmlns:xlink="http://www.w3.org/1999/xlink" viewBox="0 0 2112.2112 840.084">
	<defs>
		<style>
			.a{fill:url(#a);}.b{fill:url(#b);}.c{fill:#231f20;}
		</style>
		<linearGradient id="a" x1="54.8941" y1="644.9308" x2="334.9357" y2="644.9308" gradientUnits="userSpaceOnUse">
			<stop offset="0.2553" stop-color="#ef4023" />
			<stop offset="0.7392" stop-color="#f57720" />
			<stop offset="1" stop-color="#f7901e" />
		</linearGradient>
		<linearGradient id="b" x1="40.6854" y1="427.0734" x2="794.7782" y2="427.0734" xlink:href="#a" />
	</defs>
	<title>
		logo-black
	</title>
	<path class="a" d="M176.2254,504.9391,103.7045,577.445,54.8941,626.24h79.3523L94.574,745.2442,213.6062,705.6v79.3223l61.7167-61.68,59.6128-59.6143c-40.988-5.6961-77.4523-23.4123-106.3568-52.3164C199.6583,582.3707,181.9215,545.9285,176.2254,504.9391Z" />
	<path class="b" d="M516.7978,681.5488a24.5594,24.5594,0,0,1,2.5959-32.97l43.7041-40.9973c.1469-.1379.2968-.2728.4466-.4077-31.2613-20.2094-49.5853-52.403-49.5853-90.7535,0-69.9505,62.1629-106.55,123.57-106.55,19.4806,0,37.2216,3.0466,53.4229,9.1208,97.8475-138.587,115.1718-314.2169,97.98-365.8487C729.4117,33.3233,505.0344,59.2955,362.62,201.6669q-12.4424,12.4418-23.6521,24.9466l-69.2323-7.0566c-47.7051-4.86-91.16,16.238-116.8137,56.77L40.6854,453.5107l189.6325,12.164c1.4973,40.9018,16.0263,76.39,42.8075,103.1715,26.9554,26.9479,62.7358,41.4694,104.0161,42.794L392.15,806.8582,541.5706,707.28A166.54,166.54,0,0,1,516.7978,681.5488ZM511.1823,211.83a84.16,84.16,0,1,1,0,119.0037A84.1766,84.1766,0,0,1,511.1823,211.83Z" />
	<path class="c" d="M589.1074,628.5613c27.46,33.2637,87.8009,34.81,89.7313,5.4136.7734-15.47-24.364-24.367-46.7976-27.46-44.0938-6.96-84.3177-34.81-84.3177-87.0245,0-53.7608,48.734-81.9946,99.0117-81.9946,33.2667,0,65.37,9.28,93.6011,43.7041l-45.2508,34.81c-28.62-30.5569-77.7441-29.3939-78.9042,2.32.7734,13.15,15.0866,20.8868,36.3571,25.527,48.734,8.8967,97.4679,25.9137,94.3745,93.2144-2.32,52.9875-58.0143,81.9946-108.295,81.9946-32.877,0-67.6874-16.63-93.2144-49.5073Z" />
	<path class="c" d="M846.2992,715.1991H776.6784V441.3621h69.6208V545.0169H925.2V441.3621h69.6208V715.1991H925.2V611.9309H846.2992Z" />
	<path class="c" d="M1107.3547,715.1991h-69.2311V441.3621h69.2311Z" />
	<path class="c" d="M1150.6632,441.3621h109.4581c66.911,0,100.1717,48.3473,100.1717,96.6946,0,48.734-33.65,97.0813-99.788,97.0813h-40.6106v80.0612h-69.2311ZM1260.1212,573.64c41.7677.3867,41.7677-68.0741,0-67.6874h-40.227V573.64Z" />
	<path class="c" d="M1575.8061,615.36l-13.6123-7.207-23.168,36.62-71.7617-78.832,4.6436-2.8267c29.1582-15.1914,58.9219-35.583,58.9219-71.5967,0-30.373-26.0986-55.083-58.1787-55.083-17.1738,0-33.2266,5.5757-45.2012,15.7a56.1479,56.1479,0,0,0-19.9443,43.64c0,21.6357,15.5576,44.01,33.1406,65.1577-40.999,25.1211-61.7773,53.83-61.7773,85.3828,0,21.9473,8.0889,40.7764,23.3926,54.4521,14.4189,12.8848,34.3311,19.98,56.07,19.98,31.7178,0,56.8828-14.7646,83.458-49.1816l33.56,37.5723H1597.21l-46.4668-52.8027Zm-136.98-150.5474A49.0769,49.0769,0,0,1,1471.49,452.948c24.76,0,42.0518,16.4966,42.0518,40.1172,0,28.4326-27.9121,45.56-57.3262,60.4326C1435.3383,529.2683,1425.18,510.1125,1425.18,495A39.8047,39.8047,0,0,1,1438.8256,464.8122ZM1461.4282,704.62c-40.0225,0-64.8848-22.6377-64.8848-59.08,0-26.4619,18.5674-51.03,55.1953-73.0566l78.5,87.6709C1515.2289,681.0315,1491.59,704.62,1461.4282,704.62Z" />
	<path class="c" d="M1800.5649,672.7727c-13.08,20.1221-41.6,32.6221-74.4316,32.6221-21.3311,0-42.0537-5.8105-56.8535-15.9414-11.6084-7.9463-25.4463-22.5518-25.4463-47.0088V513.9631c0-24.4917,13.8447-39.1919,25.459-47.2114,14.8428-10.248,35.56-16.1255,56.8408-16.1255,32.4814,0,61.6709,13.5229,74.3652,34.4512l2.2549,3.7188,15.0313-10.9307-1.9492-3.1558c-15.7607-25.519-49.6875-41.3716-88.541-41.3716-50.2578,0-101.1357,27.6943-101.1357,80.625V642.4446c0,52.9307,50.2939,80.625,99.9746,80.625,39.4219,0,73.7939-16.001,89.7021-41.7588l2.2988-3.7227-15.6221-7.8115Z" />
	<path class="c" d="M2030.0346,453.42c-19.207-12.95-44.9453-20.0815-72.4756-20.0815-27.502,0-53.1758,7.1338-72.29,20.0869-21.9092,14.8472-33.4893,36.0483-33.4893,61.312V641.2834c0,25.2793,11.5762,46.5449,33.4785,61.498,19.1621,13.083,44.8389,20.2881,72.3008,20.2881,27.4893,0,53.2324-7.2031,72.4863-20.2832,22.0332-14.9668,33.68-36.2344,33.68-61.5029V514.737C2063.725,489.4836,2052.0747,468.2805,2030.0346,453.42ZM1957.559,705.3948c-42.4336,0-88.1045-20.0625-88.1045-64.1113V514.737c0-46.7769,47.2705-63.771,87.7168-64.1108,23.9395,0,45.8066,5.4844,61.5732,15.4419,18.1191,11.4434,27.3057,27.8179,27.3057,48.6689V641.2834C2046.05,685.3323,2000.1791,705.3948,1957.559,705.3948Z" />
</svg>
